<?xml version="1.0" encoding="UTF-8" standalone="no"?>
<!DOCTYPE svg PUBLIC "-//W3C//DTD SVG 1.1//EN"
 "http://www.w3.org/Graphics/SVG/1.1/DTD/svg11.dtd">
<!-- Generated by graphviz version 5.0.0 (20220707.1540)
 -->
<!-- Title: dependencies Pages: 1 -->
<svg width="702pt" height="174pt"
 viewBox="0.00 0.00 702.00 173.80" xmlns="http://www.w3.org/2000/svg" xmlns:xlink="http://www.w3.org/1999/xlink">
<g id="graph0" class="graph" transform="scale(1 1) rotate(0) translate(4 169.8)">
<title>dependencies</title>
<polygon fill="white" stroke="transparent" points="-4,4 -4,-169.8 698,-169.8 698,4 -4,4"/>
<text text-anchor="middle" x="347" y="-8.2" font-family="sans-serif" font-size="14.00">dependencies</text>
<g id="clust1" class="cluster">
<title>cluster_AdminModule</title>
<polygon fill="none" stroke="black" stroke-dasharray="1,5" points="8,-32.8 8,-157.8 686,-157.8 686,-32.8 8,-32.8"/>
</g>
<g id="clust2" class="cluster">
<title>cluster_AdminModule_declarations</title>
<polygon fill="none" stroke="black" points="348,-40.8 348,-92.8 678,-92.8 678,-40.8 348,-40.8"/>
</g>
<g id="clust5" class="cluster">
<title>cluster_AdminModule_imports</title>
<polygon fill="none" stroke="black" points="16,-40.8 16,-92.8 340,-92.8 340,-40.8 16,-40.8"/>
</g>
<!-- AdminComponent -->
<g id="node1" class="node">
<title>AdminComponent</title>
<polygon fill="#ffffb3" stroke="black" points="670.22,-84.8 549.78,-84.8 549.78,-48.8 670.22,-48.8 670.22,-84.8"/>
<text text-anchor="middle" x="610" y="-62.6" font-family="Times,serif" font-size="14.00">AdminComponent</text>
</g>
<!-- AdminModule -->
<g id="node3" class="node">
<title>AdminModule</title>
<polygon fill="#8dd3c7" stroke="black" points="401.44,-149.8 398.44,-153.8 377.44,-153.8 374.44,-149.8 302.56,-149.8 302.56,-113.8 401.44,-113.8 401.44,-149.8"/>
<text text-anchor="middle" x="352" y="-127.6" font-family="Times,serif" font-size="14.00">AdminModule</text>
</g>
<!-- AdminComponent&#45;&gt;AdminModule -->
<g id="edge1" class="edge">
<title>AdminComponent&#45;&gt;AdminModule</title>
<path fill="none" stroke="black" d="M610,-84.91C610,-104.14 610,-131.8 610,-131.8 610,-131.8 411.44,-131.8 411.44,-131.8"/>
<polygon fill="black" stroke="black" points="411.44,-128.3 401.44,-131.8 411.44,-135.3 411.44,-128.3"/>
</g>
<!-- DestinationFormComponent -->
<g id="node2" class="node">
<title>DestinationFormComponent</title>
<polygon fill="#ffffb3" stroke="black" points="532.21,-84.8 355.79,-84.8 355.79,-48.8 532.21,-48.8 532.21,-84.8"/>
<text text-anchor="middle" x="444" y="-62.6" font-family="Times,serif" font-size="14.00">DestinationFormComponent</text>
</g>
<!-- DestinationFormComponent&#45;&gt;AdminModule -->
<g id="edge2" class="edge">
<title>DestinationFormComponent&#45;&gt;AdminModule</title>
<path fill="none" stroke="black" d="M378.56,-84.91C378.56,-84.91 378.56,-103.79 378.56,-103.79"/>
<polygon fill="black" stroke="black" points="375.06,-103.79 378.56,-113.79 382.06,-103.79 375.06,-103.79"/>
</g>
<!-- AdminRoutingModule -->
<g id="node4" class="node">
<title>AdminRoutingModule</title>
<polygon fill="#8dd3c7" stroke="black" points="331.56,-84.8 328.56,-88.8 307.56,-88.8 304.56,-84.8 188.44,-84.8 188.44,-48.8 331.56,-48.8 331.56,-84.8"/>
<text text-anchor="middle" x="260" y="-62.6" font-family="Times,serif" font-size="14.00">AdminRoutingModule</text>
</g>
<!-- AdminRoutingModule&#45;&gt;AdminModule -->
<g id="edge3" class="edge">
<title>AdminRoutingModule&#45;&gt;AdminModule</title>
<path fill="none" stroke="black" d="M317.28,-84.91C317.28,-84.91 317.28,-103.79 317.28,-103.79"/>
<polygon fill="black" stroke="black" points="313.78,-103.79 317.28,-113.79 320.78,-103.79 313.78,-103.79"/>
</g>
<!-- SharedMaterialModule -->
<g id="node5" class="node">
<title>SharedMaterialModule</title>
<polygon fill="#8dd3c7" stroke="black" points="169.85,-84.8 166.85,-88.8 145.85,-88.8 142.85,-84.8 24.15,-84.8 24.15,-48.8 169.85,-48.8 169.85,-84.8"/>
<text text-anchor="middle" x="97" y="-62.6" font-family="Times,serif" font-size="14.00">SharedMaterialModule</text>
</g>
<!-- SharedMaterialModule&#45;&gt;AdminModule -->
<g id="edge4" class="edge">
<title>SharedMaterialModule&#45;&gt;AdminModule</title>
<path fill="none" stroke="black" d="M97,-84.91C97,-104.14 97,-131.8 97,-131.8 97,-131.8 292.53,-131.8 292.53,-131.8"/>
<polygon fill="black" stroke="black" points="292.53,-135.3 302.53,-131.8 292.53,-128.3 292.53,-135.3"/>
</g>
</g>
</svg>
