<?xml version="1.0" encoding="UTF-8" standalone="no"?>
<!DOCTYPE svg PUBLIC "-//W3C//DTD SVG 1.1//EN"
 "http://www.w3.org/Graphics/SVG/1.1/DTD/svg11.dtd">
<!-- Generated by graphviz version 5.0.0 (20220707.1540)
 -->
<!-- Title: dependencies Pages: 1 -->
<svg width="916pt" height="247pt"
 viewBox="0.00 0.00 916.00 246.80" xmlns="http://www.w3.org/2000/svg" xmlns:xlink="http://www.w3.org/1999/xlink">
<g id="graph0" class="graph" transform="scale(1 1) rotate(0) translate(4 242.8)">
<title>dependencies</title>
<polygon fill="white" stroke="transparent" points="-4,4 -4,-242.8 912,-242.8 912,4 -4,4"/>
<text text-anchor="middle" x="454" y="-8.2" font-family="sans-serif" font-size="14.00">dependencies</text>
<g id="clust1" class="cluster">
<title>cluster_AppModule</title>
<polygon fill="none" stroke="black" stroke-dasharray="1,5" points="8,-32.8 8,-230.8 900,-230.8 900,-32.8 8,-32.8"/>
</g>
<g id="clust9" class="cluster">
<title>cluster_AppModule_bootstrap</title>
<polygon fill="none" stroke="black" points="406,-170.8 406,-222.8 530,-222.8 530,-170.8 406,-170.8"/>
</g>
<g id="clust2" class="cluster">
<title>cluster_AppModule_declarations</title>
<polygon fill="none" stroke="black" points="332,-40.8 332,-92.8 892,-92.8 892,-40.8 332,-40.8"/>
</g>
<g id="clust7" class="cluster">
<title>cluster_AppModule_imports</title>
<polygon fill="none" stroke="black" points="16,-40.8 16,-92.8 324,-92.8 324,-40.8 16,-40.8"/>
</g>
<!-- AppComponent -->
<g id="node1" class="node">
<title>AppComponent</title>
<polygon fill="#ffffb3" stroke="black" points="883.94,-84.8 778.06,-84.8 778.06,-48.8 883.94,-48.8 883.94,-84.8"/>
<text text-anchor="middle" x="831" y="-62.6" font-family="Times,serif" font-size="14.00">AppComponent</text>
</g>
<!-- AppModule -->
<g id="node5" class="node">
<title>AppModule</title>
<polygon fill="#8dd3c7" stroke="black" points="509.66,-149.8 506.66,-153.8 485.66,-153.8 482.66,-149.8 426.34,-149.8 426.34,-113.8 509.66,-113.8 509.66,-149.8"/>
<text text-anchor="middle" x="468" y="-127.6" font-family="Times,serif" font-size="14.00">AppModule</text>
</g>
<!-- AppComponent&#45;&gt;AppModule -->
<g id="edge1" class="edge">
<title>AppComponent&#45;&gt;AppModule</title>
<path fill="none" stroke="black" d="M831,-85.08C831,-106.12 831,-137.8 831,-137.8 831,-137.8 520,-137.8 520,-137.8"/>
<polygon fill="black" stroke="black" points="520,-134.3 510,-137.8 520,-141.3 520,-134.3"/>
</g>
<!-- DestinationsComponent -->
<g id="node2" class="node">
<title>DestinationsComponent</title>
<polygon fill="#ffffb3" stroke="black" points="760.82,-84.8 609.18,-84.8 609.18,-48.8 760.82,-48.8 760.82,-84.8"/>
<text text-anchor="middle" x="685" y="-62.6" font-family="Times,serif" font-size="14.00">DestinationsComponent</text>
</g>
<!-- DestinationsComponent&#45;&gt;AppModule -->
<g id="edge2" class="edge">
<title>DestinationsComponent&#45;&gt;AppModule</title>
<path fill="none" stroke="black" d="M685,-84.82C685,-102.17 685,-125.8 685,-125.8 685,-125.8 519.84,-125.8 519.84,-125.8"/>
<polygon fill="black" stroke="black" points="519.84,-122.3 509.84,-125.8 519.84,-129.3 519.84,-122.3"/>
</g>
<!-- LogoComponent -->
<g id="node3" class="node">
<title>LogoComponent</title>
<polygon fill="#ffffb3" stroke="black" points="591.38,-84.8 480.62,-84.8 480.62,-48.8 591.38,-48.8 591.38,-84.8"/>
<text text-anchor="middle" x="536" y="-62.6" font-family="Times,serif" font-size="14.00">LogoComponent</text>
</g>
<!-- LogoComponent&#45;&gt;AppModule -->
<g id="edge3" class="edge">
<title>LogoComponent&#45;&gt;AppModule</title>
<path fill="none" stroke="black" d="M495.19,-84.91C495.19,-84.91 495.19,-103.79 495.19,-103.79"/>
<polygon fill="black" stroke="black" points="491.69,-103.79 495.19,-113.79 498.69,-103.79 491.69,-103.79"/>
</g>
<!-- TicketsComponent -->
<g id="node4" class="node">
<title>TicketsComponent</title>
<polygon fill="#ffffb3" stroke="black" points="462.04,-84.8 339.96,-84.8 339.96,-48.8 462.04,-48.8 462.04,-84.8"/>
<text text-anchor="middle" x="401" y="-62.6" font-family="Times,serif" font-size="14.00">TicketsComponent</text>
</g>
<!-- TicketsComponent&#45;&gt;AppModule -->
<g id="edge4" class="edge">
<title>TicketsComponent&#45;&gt;AppModule</title>
<path fill="none" stroke="black" d="M444.22,-84.91C444.22,-84.91 444.22,-103.79 444.22,-103.79"/>
<polygon fill="black" stroke="black" points="440.72,-103.79 444.22,-113.79 447.72,-103.79 440.72,-103.79"/>
</g>
<!-- AppComponent  -->
<g id="node8" class="node">
<title>AppComponent </title>
<polygon fill="#80b1d3" stroke="black" points="522.44,-214.8 413.56,-214.8 413.56,-178.8 522.44,-178.8 522.44,-214.8"/>
<text text-anchor="middle" x="468" y="-192.6" font-family="Times,serif" font-size="14.00">AppComponent </text>
</g>
<!-- AppModule&#45;&gt;AppComponent  -->
<g id="edge7" class="edge">
<title>AppModule&#45;&gt;AppComponent </title>
<path fill="none" stroke="black" stroke-dasharray="1,5" d="M468,-149.91C468,-149.91 468,-168.79 468,-168.79"/>
<polygon fill="black" stroke="black" points="464.5,-168.79 468,-178.79 471.5,-168.79 464.5,-168.79"/>
</g>
<!-- AppRoutingModule -->
<g id="node6" class="node">
<title>AppRoutingModule</title>
<polygon fill="#8dd3c7" stroke="black" points="316.28,-84.8 313.28,-88.8 292.28,-88.8 289.28,-84.8 187.72,-84.8 187.72,-48.8 316.28,-48.8 316.28,-84.8"/>
<text text-anchor="middle" x="252" y="-62.6" font-family="Times,serif" font-size="14.00">AppRoutingModule</text>
</g>
<!-- AppRoutingModule&#45;&gt;AppModule -->
<g id="edge5" class="edge">
<title>AppRoutingModule&#45;&gt;AppModule</title>
<path fill="none" stroke="black" d="M252,-84.82C252,-102.17 252,-125.8 252,-125.8 252,-125.8 416.1,-125.8 416.1,-125.8"/>
<polygon fill="black" stroke="black" points="416.1,-129.3 426.1,-125.8 416.1,-122.3 416.1,-129.3"/>
</g>
<!-- SharedMaterialModule -->
<g id="node7" class="node">
<title>SharedMaterialModule</title>
<polygon fill="#8dd3c7" stroke="black" points="169.85,-84.8 166.85,-88.8 145.85,-88.8 142.85,-84.8 24.15,-84.8 24.15,-48.8 169.85,-48.8 169.85,-84.8"/>
<text text-anchor="middle" x="97" y="-62.6" font-family="Times,serif" font-size="14.00">SharedMaterialModule</text>
</g>
<!-- SharedMaterialModule&#45;&gt;AppModule -->
<g id="edge6" class="edge">
<title>SharedMaterialModule&#45;&gt;AppModule</title>
<path fill="none" stroke="black" d="M97,-85.08C97,-106.12 97,-137.8 97,-137.8 97,-137.8 416.16,-137.8 416.16,-137.8"/>
<polygon fill="black" stroke="black" points="416.16,-141.3 426.16,-137.8 416.16,-134.3 416.16,-141.3"/>
</g>
</g>
</svg>
