<?xml version="1.0" encoding="UTF-8" standalone="no"?>
<!DOCTYPE svg PUBLIC "-//W3C//DTD SVG 1.1//EN"
 "http://www.w3.org/Graphics/SVG/1.1/DTD/svg11.dtd">
<!-- Generated by graphviz version 5.0.0 (20220707.1540)
 -->
<!-- Title: dependencies Pages: 1 -->
<svg width="1438pt" height="247pt"
 viewBox="0.00 0.00 1438.00 246.80" xmlns="http://www.w3.org/2000/svg" xmlns:xlink="http://www.w3.org/1999/xlink">
<g id="graph0" class="graph" transform="scale(1 1) rotate(0) translate(4 242.8)">
<title>dependencies</title>
<polygon fill="white" stroke="transparent" points="-4,4 -4,-242.8 1434,-242.8 1434,4 -4,4"/>
<text text-anchor="middle" x="715" y="-8.2" font-family="sans-serif" font-size="14.00">dependencies</text>
<g id="clust1" class="cluster">
<title>cluster_AdminModule</title>
<polygon fill="none" stroke="black" stroke-dasharray="1,5" points="8,-32.8 8,-157.8 686,-157.8 686,-32.8 8,-32.8"/>
</g>
<g id="clust2" class="cluster">
<title>cluster_AdminModule_declarations</title>
<polygon fill="none" stroke="black" points="16,-40.8 16,-92.8 346,-92.8 346,-40.8 16,-40.8"/>
</g>
<g id="clust5" class="cluster">
<title>cluster_AdminModule_imports</title>
<polygon fill="none" stroke="black" points="354,-40.8 354,-92.8 678,-92.8 678,-40.8 354,-40.8"/>
</g>
<g id="clust15" class="cluster">
<title>cluster_AppModule</title>
<polygon fill="none" stroke="black" stroke-dasharray="1,5" points="694,-32.8 694,-230.8 1422,-230.8 1422,-32.8 694,-32.8"/>
</g>
<g id="clust16" class="cluster">
<title>cluster_AppModule_declarations</title>
<polygon fill="none" stroke="black" points="854,-40.8 854,-92.8 1414,-92.8 1414,-40.8 854,-40.8"/>
</g>
<g id="clust21" class="cluster">
<title>cluster_AppModule_imports</title>
<polygon fill="none" stroke="black" points="702,-40.8 702,-92.8 846,-92.8 846,-40.8 702,-40.8"/>
</g>
<g id="clust23" class="cluster">
<title>cluster_AppModule_bootstrap</title>
<polygon fill="none" stroke="black" points="928,-170.8 928,-222.8 1052,-222.8 1052,-170.8 928,-170.8"/>
</g>
<!-- AdminComponent -->
<g id="node1" class="node">
<title>AdminComponent</title>
<polygon fill="#ffffb3" stroke="black" points="338.22,-84.8 217.78,-84.8 217.78,-48.8 338.22,-48.8 338.22,-84.8"/>
<text text-anchor="middle" x="278" y="-62.6" font-family="Times,serif" font-size="14.00">AdminComponent</text>
</g>
<!-- AdminModule -->
<g id="node3" class="node">
<title>AdminModule</title>
<polygon fill="#8dd3c7" stroke="black" points="405.44,-149.8 402.44,-153.8 381.44,-153.8 378.44,-149.8 306.56,-149.8 306.56,-113.8 405.44,-113.8 405.44,-149.8"/>
<text text-anchor="middle" x="356" y="-127.6" font-family="Times,serif" font-size="14.00">AdminModule</text>
</g>
<!-- AdminComponent&#45;&gt;AdminModule -->
<g id="edge1" class="edge">
<title>AdminComponent&#45;&gt;AdminModule</title>
<path fill="none" stroke="black" d="M322.44,-84.91C322.44,-84.91 322.44,-103.79 322.44,-103.79"/>
<polygon fill="black" stroke="black" points="318.94,-103.79 322.44,-113.79 325.94,-103.79 318.94,-103.79"/>
</g>
<!-- DestinationFormComponent -->
<g id="node2" class="node">
<title>DestinationFormComponent</title>
<polygon fill="#ffffb3" stroke="black" points="200.21,-84.8 23.79,-84.8 23.79,-48.8 200.21,-48.8 200.21,-84.8"/>
<text text-anchor="middle" x="112" y="-62.6" font-family="Times,serif" font-size="14.00">DestinationFormComponent</text>
</g>
<!-- DestinationFormComponent&#45;&gt;AdminModule -->
<g id="edge2" class="edge">
<title>DestinationFormComponent&#45;&gt;AdminModule</title>
<path fill="none" stroke="black" d="M112,-84.91C112,-104.14 112,-131.8 112,-131.8 112,-131.8 296.62,-131.8 296.62,-131.8"/>
<polygon fill="black" stroke="black" points="296.62,-135.3 306.62,-131.8 296.62,-128.3 296.62,-135.3"/>
</g>
<!-- AdminRoutingModule -->
<g id="node4" class="node">
<title>AdminRoutingModule</title>
<polygon fill="#8dd3c7" stroke="black" points="505.56,-84.8 502.56,-88.8 481.56,-88.8 478.56,-84.8 362.44,-84.8 362.44,-48.8 505.56,-48.8 505.56,-84.8"/>
<text text-anchor="middle" x="434" y="-62.6" font-family="Times,serif" font-size="14.00">AdminRoutingModule</text>
</g>
<!-- AdminRoutingModule&#45;&gt;AdminModule -->
<g id="edge3" class="edge">
<title>AdminRoutingModule&#45;&gt;AdminModule</title>
<path fill="none" stroke="black" d="M383.72,-84.91C383.72,-84.91 383.72,-103.79 383.72,-103.79"/>
<polygon fill="black" stroke="black" points="380.22,-103.79 383.72,-113.79 387.22,-103.79 380.22,-103.79"/>
</g>
<!-- SharedMaterialModule -->
<g id="node5" class="node">
<title>SharedMaterialModule</title>
<polygon fill="#8dd3c7" stroke="black" points="669.85,-84.8 666.85,-88.8 645.85,-88.8 642.85,-84.8 524.15,-84.8 524.15,-48.8 669.85,-48.8 669.85,-84.8"/>
<text text-anchor="middle" x="597" y="-62.6" font-family="Times,serif" font-size="14.00">SharedMaterialModule</text>
</g>
<!-- SharedMaterialModule&#45;&gt;AdminModule -->
<g id="edge4" class="edge">
<title>SharedMaterialModule&#45;&gt;AdminModule</title>
<path fill="none" stroke="black" d="M572.69,-84.83C572.69,-101.2 572.69,-122.8 572.69,-122.8 572.69,-122.8 415.44,-122.8 415.44,-122.8"/>
<polygon fill="black" stroke="black" points="415.44,-119.3 405.44,-122.8 415.44,-126.3 415.44,-119.3"/>
</g>
<!-- AppModule -->
<g id="node10" class="node">
<title>AppModule</title>
<polygon fill="#8dd3c7" stroke="black" points="1031.66,-149.8 1028.66,-153.8 1007.66,-153.8 1004.66,-149.8 948.34,-149.8 948.34,-113.8 1031.66,-113.8 1031.66,-149.8"/>
<text text-anchor="middle" x="990" y="-127.6" font-family="Times,serif" font-size="14.00">AppModule</text>
</g>
<!-- SharedMaterialModule&#45;&gt;AppModule -->
<g id="edge10" class="edge">
<title>SharedMaterialModule&#45;&gt;AppModule</title>
<path fill="none" stroke="black" d="M621.31,-85.09C621.31,-107.01 621.31,-140.8 621.31,-140.8 621.31,-140.8 938.07,-140.8 938.07,-140.8"/>
<polygon fill="black" stroke="black" points="938.07,-144.3 948.07,-140.8 938.07,-137.3 938.07,-144.3"/>
</g>
<!-- AppComponent -->
<g id="node6" class="node">
<title>AppComponent</title>
<polygon fill="#ffffb3" stroke="black" points="1405.94,-84.8 1300.06,-84.8 1300.06,-48.8 1405.94,-48.8 1405.94,-84.8"/>
<text text-anchor="middle" x="1353" y="-62.6" font-family="Times,serif" font-size="14.00">AppComponent</text>
</g>
<!-- AppComponent&#45;&gt;AppModule -->
<g id="edge5" class="edge">
<title>AppComponent&#45;&gt;AppModule</title>
<path fill="none" stroke="black" d="M1353,-85.08C1353,-106.12 1353,-137.8 1353,-137.8 1353,-137.8 1042,-137.8 1042,-137.8"/>
<polygon fill="black" stroke="black" points="1042,-134.3 1032,-137.8 1042,-141.3 1042,-134.3"/>
</g>
<!-- DestinationsComponent -->
<g id="node7" class="node">
<title>DestinationsComponent</title>
<polygon fill="#ffffb3" stroke="black" points="1282.82,-84.8 1131.18,-84.8 1131.18,-48.8 1282.82,-48.8 1282.82,-84.8"/>
<text text-anchor="middle" x="1207" y="-62.6" font-family="Times,serif" font-size="14.00">DestinationsComponent</text>
</g>
<!-- DestinationsComponent&#45;&gt;AppModule -->
<g id="edge6" class="edge">
<title>DestinationsComponent&#45;&gt;AppModule</title>
<path fill="none" stroke="black" d="M1207,-84.82C1207,-102.17 1207,-125.8 1207,-125.8 1207,-125.8 1041.84,-125.8 1041.84,-125.8"/>
<polygon fill="black" stroke="black" points="1041.84,-122.3 1031.84,-125.8 1041.84,-129.3 1041.84,-122.3"/>
</g>
<!-- LogoComponent -->
<g id="node8" class="node">
<title>LogoComponent</title>
<polygon fill="#ffffb3" stroke="black" points="1113.38,-84.8 1002.62,-84.8 1002.62,-48.8 1113.38,-48.8 1113.38,-84.8"/>
<text text-anchor="middle" x="1058" y="-62.6" font-family="Times,serif" font-size="14.00">LogoComponent</text>
</g>
<!-- LogoComponent&#45;&gt;AppModule -->
<g id="edge7" class="edge">
<title>LogoComponent&#45;&gt;AppModule</title>
<path fill="none" stroke="black" d="M1017.19,-84.91C1017.19,-84.91 1017.19,-103.79 1017.19,-103.79"/>
<polygon fill="black" stroke="black" points="1013.69,-103.79 1017.19,-113.79 1020.69,-103.79 1013.69,-103.79"/>
</g>
<!-- TicketsComponent -->
<g id="node9" class="node">
<title>TicketsComponent</title>
<polygon fill="#ffffb3" stroke="black" points="984.04,-84.8 861.96,-84.8 861.96,-48.8 984.04,-48.8 984.04,-84.8"/>
<text text-anchor="middle" x="923" y="-62.6" font-family="Times,serif" font-size="14.00">TicketsComponent</text>
</g>
<!-- TicketsComponent&#45;&gt;AppModule -->
<g id="edge8" class="edge">
<title>TicketsComponent&#45;&gt;AppModule</title>
<path fill="none" stroke="black" d="M966.22,-84.91C966.22,-84.91 966.22,-103.79 966.22,-103.79"/>
<polygon fill="black" stroke="black" points="962.72,-103.79 966.22,-113.79 969.72,-103.79 962.72,-103.79"/>
</g>
<!-- AppComponent  -->
<g id="node12" class="node">
<title>AppComponent </title>
<polygon fill="#80b1d3" stroke="black" points="1044.44,-214.8 935.56,-214.8 935.56,-178.8 1044.44,-178.8 1044.44,-214.8"/>
<text text-anchor="middle" x="990" y="-192.6" font-family="Times,serif" font-size="14.00">AppComponent </text>
</g>
<!-- AppModule&#45;&gt;AppComponent  -->
<g id="edge11" class="edge">
<title>AppModule&#45;&gt;AppComponent </title>
<path fill="none" stroke="black" stroke-dasharray="1,5" d="M990,-149.91C990,-149.91 990,-168.79 990,-168.79"/>
<polygon fill="black" stroke="black" points="986.5,-168.79 990,-178.79 993.5,-168.79 986.5,-168.79"/>
</g>
<!-- AppRoutingModule -->
<g id="node11" class="node">
<title>AppRoutingModule</title>
<polygon fill="#8dd3c7" stroke="black" points="838.28,-84.8 835.28,-88.8 814.28,-88.8 811.28,-84.8 709.72,-84.8 709.72,-48.8 838.28,-48.8 838.28,-84.8"/>
<text text-anchor="middle" x="774" y="-62.6" font-family="Times,serif" font-size="14.00">AppRoutingModule</text>
</g>
<!-- AppRoutingModule&#45;&gt;AppModule -->
<g id="edge9" class="edge">
<title>AppRoutingModule&#45;&gt;AppModule</title>
<path fill="none" stroke="black" d="M774,-84.91C774,-104.14 774,-131.8 774,-131.8 774,-131.8 938.1,-131.8 938.1,-131.8"/>
<polygon fill="black" stroke="black" points="938.1,-135.3 948.1,-131.8 938.1,-128.3 938.1,-135.3"/>
</g>
</g>
</svg>
